
<svg aria-hidden="true" xmlns="http://www.w3.org/2000/svg" viewBox="0 0 24 24" stroke-width="1.5" style="position: absolute; width: 0; height: 0; overflow: hidden;">
  <defs>
    <symbol id="clipboard" viewBox="0 0 24 24" fill="none" stroke="currentColor">
      <path stroke-linecap="round" stroke-linejoin="round" d="M11.35 3.836c-.065.21-.1.433-.1.664 0 .414.336.75.75.75h4.5a.75.75 0 00.75-.75 2.25 2.25 0 00-.1-.664m-5.8 0A2.251 2.251 0 0113.5 2.25H15c1.012 0 1.867.668 2.15 1.586m-5.8 0c-.376.023-.75.05-1.124.08C9.095 4.01 8.25 4.973 8.25 6.108V8.25m8.9-4.414c.376.023.75.05 1.124.08 1.131.094 1.976 1.057 1.976 2.192V16.5A2.25 2.25 0 0118 18.75h-2.25m-7.5-10.5H4.875c-.621 0-1.125.504-1.125 1.125v11.25c0 .621.504 1.125 1.125 1.125h9.75c.621 0 1.125-.504 1.125-1.125V18.75m-7.5-10.5h6.375c.621 0 1.125.504 1.125 1.125v9.375m-8.25-3l1.5 1.5 3-3.75" />
    </symbol>
    <symbol id="undo" viewBox="0 0 24 24" fill="none" stroke="currentColor">
      <path stroke-linecap="round" stroke-linejoin="round" d="M9 15L3 9m0 0l6-6M3 9h12a6 6 0 010 12h-3" />
    </symbol>
    <symbol id="twitter" viewBox="0 0 30 30" fill="currentColor">
      <path d="M15,3C8.373,3,3,8.373,3,15c0,6.627,5.373,12,12,12s12-5.373,12-12C27,8.373,21.627,3,15,3z M21.464,12.535 c0.006,0.133,0.009,0.265,0.009,0.397c0,4.068-3.095,8.756-8.756,8.756c-1.739,0-3.356-0.509-4.717-1.383 c0.241,0.029,0.486,0.042,0.735,0.042c1.443,0,2.769-0.491,3.821-1.318c-1.347-0.025-2.484-0.915-2.875-2.137 c0.188,0.036,0.381,0.055,0.579,0.055c0.281,0,0.554-0.038,0.811-0.108c-1.408-0.282-2.469-1.526-2.469-3.017 c0-0.013,0-0.026,0-0.039c0.415,0.231,0.889,0.369,1.394,0.385c-0.825-0.551-1.369-1.494-1.369-2.561 c0-0.565,0.151-1.094,0.416-1.547c1.518,1.862,3.786,3.088,6.343,3.216c-0.052-0.225-0.079-0.46-0.079-0.701 c0-1.699,1.378-3.078,3.077-3.078c0.885,0,1.685,0.374,2.246,0.972c0.701-0.139,1.36-0.394,1.955-0.747 c-0.23,0.719-0.718,1.321-1.354,1.703c0.622-0.074,1.215-0.239,1.768-0.484C22.588,11.559,22.067,12.1,21.464,12.535z"/>
    </symbol>
    <symbol id="github" viewBox="0 0 30 30" fill="currentColor">
      <path d="M15,3C8.373,3,3,8.373,3,15c0,5.623,3.872,10.328,9.092,11.63C12.036,26.468,12,26.28,12,26.047v-2.051 c-0.487,0-1.303,0-1.508,0c-0.821,0-1.551-0.353-1.905-1.009c-0.393-0.729-0.461-1.844-1.435-2.526 c-0.289-0.227-0.069-0.486,0.264-0.451c0.615,0.174,1.125,0.596,1.605,1.222c0.478,0.627,0.703,0.769,1.596,0.769 c0.433,0,1.081-0.025,1.691-0.121c0.328-0.833,0.895-1.6,1.588-1.962c-3.996-0.411-5.903-2.399-5.903-5.098 c0-1.162,0.495-2.286,1.336-3.233C9.053,10.647,8.706,8.73,9.435,8c1.798,0,2.885,1.166,3.146,1.481C13.477,9.174,14.461,9,15.495,9 c1.036,0,2.024,0.174,2.922,0.483C18.675,9.17,19.763,8,21.565,8c0.732,0.731,0.381,2.656,0.102,3.594 c0.836,0.945,1.328,2.066,1.328,3.226c0,2.697-1.904,4.684-5.894,5.097C18.199,20.49,19,22.1,19,23.313v2.734 c0,0.104-0.023,0.179-0.035,0.268C23.641,24.676,27,20.236,27,15C27,8.373,21.627,3,15,3z"/>
    </symbol>
  </defs>
</svg>
