<!-- ####################################################### -->
<!-- All Icons by Tailwind CSS team - https://heroicons.com/ -->
<!-- More icons available from heroicons -->
<!-- Sprite put together by Leon Lonsdale -->
<!-- ####################################################### -->

<svg aria-hidden="true" xmlns="http://www.w3.org/2000/svg" viewBox="0 0 24 24" stroke-width="1.5" style="position: absolute; width: 0; height: 0; overflow: hidden;">
<defs>

<!-- Arrows -->

<symbol id="circle-arrow-down" viewBox="0 0 24 24" fill="none" stroke="currentColor">
  <path stroke-linecap="round" stroke-linejoin="round" d="M9 12.75l3 3m0 0l3-3m-3 3v-7.5M21 12a9 9 0 11-18 0 9 9 0 0118 0z" />
</symbol>

<symbol id="circle-arrow-left" viewBox="0 0 24 24" fill="none" stroke="currentColor">
  <path stroke-linecap="round" stroke-linejoin="round" d="M11.25 9l-3 3m0 0l3 3m-3-3h7.5M21 12a9 9 0 11-18 0 9 9 0 0118 0z" />
</symbol>

<symbol id="circle-arrow-right" viewBox="0 0 24 24" fill="none" stroke="currentColor">
  <path stroke-linecap="round" stroke-linejoin="round" d="M12.75 15l3-3m0 0l-3-3m3 3h-7.5M21 12a9 9 0 11-18 0 9 9 0 0118 0z" />
</symbol>

<symbol id="circle-arrow-up" viewBox="0 0 24 24" fill="none" stroke="currentColor">
  <path stroke-linecap="round" stroke-linejoin="round" d="M15 11.25l-3-3m0 0l-3 3m3-3v7.5M21 12a9 9 0 11-18 0 9 9 0 0118 0z" />
</symbol>

<symbol id="arrow-left" viewBox="0 0 24 24" fill="none" stroke="currentColor">
  <path stroke-linecap="round" stroke-linejoin="round" d="M10.5 19.5L3 12m0 0l7.5-7.5M3 12h18" />
</symbol>

<symbol id="arrow-right" viewBox="0 0 24 24" fill="none" stroke="currentColor">
  <path stroke-linecap="round" stroke-linejoin="round" d="M13.5 4.5L21 12m0 0l-7.5 7.5M21 12H3" />
</symbol>

<symbol id="arrow-up" viewBox="0 0 24 24" fill="none" stroke="currentColor">
  <path stroke-linecap="round" stroke-linejoin="round" d="M4.5 10.5L12 3m0 0l7.5 7.5M12 3v18" />
</symbol>

<symbol id="arrow-down" viewBox="0 0 24 24" fill="none" stroke="currentColor">
  <path stroke-linecap="round" stroke-linejoin="round" d="M19.5 13.5L12 21m0 0l-7.5-7.5M12 21V3" />
</symbol>

<symbol id="arrow-up-left" viewBox="0 0 24 24" fill="none" stroke="currentColor">
  <path stroke-linecap="round" stroke-linejoin="round" d="M19.5 19.5l-15-15m0 0v11.25m0-11.25h11.25" />
</symbol>

<symbol id="arrow-up-right" viewBox="0 0 24 24" fill="none" stroke="currentColor">
  <path stroke-linecap="round" stroke-linejoin="round" d="M4.5 19.5l15-15m0 0H8.25m11.25 0v11.25" />
</symbol>

<symbol id="arrow-down-left" viewBox="0 0 24 24" fill="none" stroke="currentColor">
  <path stroke-linecap="round" stroke-linejoin="round" d="M19.5 4.5l-15 15m0 0h11.25m-11.25 0V8.25" />
</symbol>

<symbol id="arrow-down-right" viewBox="0 0 24 24" fill="none" stroke="currentColor">
  <path stroke-linecap="round" stroke-linejoin="round" d="M4.5 4.5l15 15m0 0V8.25m0 11.25H8.25" />
</symbol>

<symbol id="arrow-small-down" viewBox="0 0 24 24" fill="none" stroke="currentColor">
  <path stroke-linecap="round" stroke-linejoin="round" d="M12 4.5v15m0 0l6.75-6.75M12 19.5l-6.75-6.75" />
</symbol>

<symbol id="arrow-small-left" viewBox="0 0 24 24" fill="none" stroke="currentColor">
  <path stroke-linecap="round" stroke-linejoin="round" d="M19.5 12h-15m0 0l6.75 6.75M4.5 12l6.75-6.75" />
</symbol>

<symbol id="arrow-small-right" viewBox="0 0 24 24" fill="none" stroke="currentColor">
  <path stroke-linecap="round" stroke-linejoin="round" d="M4.5 12h15m0 0l-6.75-6.75M19.5 12l-6.75 6.75" />
</symbol>

<symbol id="arrow-small-up" viewBox="0 0 24 24" fill="none" stroke="currentColor">
  <path stroke-linecap="round" stroke-linejoin="round" d="M12 19.5v-15m0 0l-6.75 6.75M12 4.5l6.75 6.75" />
</symbol>





<!-- Common -->

<symbol id="trash" viewBox="0 0 24 24" fill="none" stroke="currentColor">
  <path stroke-linecap="round" stroke-linejoin="round" d="M14.74 9l-.346 9m-4.788 0L9.26 9m9.968-3.21c.342.052.682.107 1.022.166m-1.022-.165L18.16 19.673a2.25 2.25 0 01-2.244 2.077H8.084a2.25 2.25 0 01-2.244-2.077L4.772 5.79m14.456 0a48.108 48.108 0 00-3.478-.397m-12 .562c.34-.059.68-.114 1.022-.165m0 0a48.11 48.11 0 013.478-.397m7.5 0v-.916c0-1.18-.91-2.164-2.09-2.201a51.964 51.964 0 00-3.32 0c-1.18.037-2.09 1.022-2.09 2.201v.916m7.5 0a48.667 48.667 0 00-7.5 0" />
</symbol>

<symbol id="tag" viewBox="0 0 24 24" fill="none" stroke="currentColor">
  <path stroke-linecap="round" stroke-linejoin="round" d="M9.568 3H5.25A2.25 2.25 0 003 5.25v4.318c0 .597.237 1.17.659 1.591l9.581 9.581c.699.699 1.78.872 2.607.33a18.095 18.095 0 005.223-5.223c.542-.827.369-1.908-.33-2.607L11.16 3.66A2.25 2.25 0 009.568 3z" />
  <path stroke-linecap="round" stroke-linejoin="round" d="M6 6h.008v.008H6V6z" />
</symbol>

<symbol id="list" viewBox="0 0 24 24" fill="none" stroke="currentColor">
  <path stroke-linecap="round" stroke-linejoin="round" d="M8.25 6.75h12M8.25 12h12m-12 5.25h12M3.75 6.75h.007v.008H3.75V6.75zm.375 0a.375.375 0 11-.75 0 .375.375 0 01.75 0zM3.75 12h.007v.008H3.75V12zm.375 0a.375.375 0 11-.75 0 .375.375 0 01.75 0zm-.375 5.25h.007v.008H3.75v-.008zm.375 0a.375.375 0 11-.75 0 .375.375 0 01.75 0z" />
</symbol>

<symbol id="link" viewBox="0 0 24 24" fill="none" stroke="currentColor">
  <path stroke-linecap="round" stroke-linejoin="round" d="M13.19 8.688a4.5 4.5 0 011.242 7.244l-4.5 4.5a4.5 4.5 0 01-6.364-6.364l1.757-1.757m13.35-.622l1.757-1.757a4.5 4.5 0 00-6.364-6.364l-4.5 4.5a4.5 4.5 0 001.242 7.244" />
</symbol>

<symbol id="funnel" viewBox="0 0 24 24" fill="none" stroke="currentColor">
  <path stroke-linecap="round" stroke-linejoin="round" d="M12 3c2.755 0 5.455.232 8.083.678.533.09.917.556.917 1.096v1.044a2.25 2.25 0 01-.659 1.591l-5.432 5.432a2.25 2.25 0 00-.659 1.591v2.927a2.25 2.25 0 01-1.244 2.013L9.75 21v-6.568a2.25 2.25 0 00-.659-1.591L3.659 7.409A2.25 2.25 0 013 5.818V4.774c0-.54.384-1.006.917-1.096A48.32 48.32 0 0112 3z" />
</symbol>

<symbol id="folder" viewBox="0 0 24 24" fill="none" stroke="currentColor">
  <path stroke-linecap="round" stroke-linejoin="round" d="M2.25 12.75V12A2.25 2.25 0 014.5 9.75h15A2.25 2.25 0 0121.75 12v.75m-8.69-6.44l-2.12-2.12a1.5 1.5 0 00-1.061-.44H4.5A2.25 2.25 0 002.25 6v12a2.25 2.25 0 002.25 2.25h15A2.25 2.25 0 0021.75 18V9a2.25 2.25 0 00-2.25-2.25h-5.379a1.5 1.5 0 01-1.06-.44z" />
</symbol>

<symbol id="folder-open" viewBox="0 0 24 24" fill="none" stroke="currentColor">
  <path stroke-linecap="round" stroke-linejoin="round" d="M3.75 9.776c.112-.017.227-.026.344-.026h15.812c.117 0 .232.009.344.026m-16.5 0a2.25 2.25 0 00-1.883 2.542l.857 6a2.25 2.25 0 002.227 1.932H19.05a2.25 2.25 0 002.227-1.932l.857-6a2.25 2.25 0 00-1.883-2.542m-16.5 0V6A2.25 2.25 0 016 3.75h3.879a1.5 1.5 0 011.06.44l2.122 2.12a1.5 1.5 0 001.06.44H18A2.25 2.25 0 0120.25 9v.776" />
</symbol>

<symbol id="folder-add" viewBox="0 0 24 24" fill="none" stroke="currentColor">
  <path stroke-linecap="round" stroke-linejoin="round" d="M12 10.5v6m3-3H9m4.06-7.19l-2.12-2.12a1.5 1.5 0 00-1.061-.44H4.5A2.25 2.25 0 002.25 6v12a2.25 2.25 0 002.25 2.25h15A2.25 2.25 0 0021.75 18V9a2.25 2.25 0 00-2.25-2.25h-5.379a1.5 1.5 0 01-1.06-.44z" />
</symbol>

<symbol id="folder-minus" viewBox="0 0 24 24" fill="none" stroke="currentColor">
  <path stroke-linecap="round" stroke-linejoin="round" d="M15 13.5H9m4.06-7.19l-2.12-2.12a1.5 1.5 0 00-1.061-.44H4.5A2.25 2.25 0 002.25 6v12a2.25 2.25 0 002.25 2.25h15A2.25 2.25 0 0021.75 18V9a2.25 2.25 0 00-2.25-2.25h-5.379a1.5 1.5 0 01-1.06-.44z" />
</symbol>

<symbol id="cog-outline" viewBox="0 0 24 24" fill="none" stroke="currentColor">
  <path stroke-linecap="round" stroke-linejoin="round" d="M9.594 3.94c.09-.542.56-.94 1.11-.94h2.593c.55 0 1.02.398 1.11.94l.213 1.281c.063.374.313.686.645.87.074.04.147.083.22.127.324.196.72.257 1.075.124l1.217-.456a1.125 1.125 0 011.37.49l1.296 2.247a1.125 1.125 0 01-.26 1.431l-1.003.827c-.293.24-.438.613-.431.992a6.759 6.759 0 010 .255c-.007.378.138.75.43.99l1.005.828c.424.35.534.954.26 1.43l-1.298 2.247a1.125 1.125 0 01-1.369.491l-1.217-.456c-.355-.133-.75-.072-1.076.124a6.57 6.57 0 01-.22.128c-.331.183-.581.495-.644.869l-.213 1.28c-.09.543-.56.941-1.11.941h-2.594c-.55 0-1.02-.398-1.11-.94l-.213-1.281c-.062-.374-.312-.686-.644-.87a6.52 6.52 0 01-.22-.127c-.325-.196-.72-.257-1.076-.124l-1.217.456a1.125 1.125 0 01-1.369-.49l-1.297-2.247a1.125 1.125 0 01.26-1.431l1.004-.827c.292-.24.437-.613.43-.992a6.932 6.932 0 010-.255c.007-.378-.138-.75-.43-.99l-1.004-.828a1.125 1.125 0 01-.26-1.43l1.297-2.247a1.125 1.125 0 011.37-.491l1.216.456c.356.133.751.072 1.076-.124.072-.044.146-.087.22-.128.332-.183.582-.495.644-.869l.214-1.281z" />
  <path stroke-linecap="round" stroke-linejoin="round" d="M15 12a3 3 0 11-6 0 3 3 0 016 0z" />
</symbol>

<symbol id="cog-detailed" viewBox="0 0 24 24" fill="none" stroke="currentColor">
  <path stroke-linecap="round" stroke-linejoin="round" d="M4.5 12a7.5 7.5 0 0015 0m-15 0a7.5 7.5 0 1115 0m-15 0H3m16.5 0H21m-1.5 0H12m-8.457 3.077l1.41-.513m14.095-5.13l1.41-.513M5.106 17.785l1.15-.964m11.49-9.642l1.149-.964M7.501 19.795l.75-1.3m7.5-12.99l.75-1.3m-6.063 16.658l.26-1.477m2.605-14.772l.26-1.477m0 17.726l-.26-1.477M10.698 4.614l-.26-1.477M16.5 19.794l-.75-1.299M7.5 4.205L12 12m6.894 5.785l-1.149-.964M6.256 7.178l-1.15-.964m15.352 8.864l-1.41-.513M4.954 9.435l-1.41-.514M12.002 12l-3.75 6.495" />
</symbol>

<symbol id="adjustment-h" viewBox="0 0 24 24" fill="none" stroke="currentColor">
  <path stroke-linecap="round" stroke-linejoin="round" d="M10.5 6h9.75M10.5 6a1.5 1.5 0 11-3 0m3 0a1.5 1.5 0 10-3 0M3.75 6H7.5m3 12h9.75m-9.75 0a1.5 1.5 0 01-3 0m3 0a1.5 1.5 0 00-3 0m-3.75 0H7.5m9-6h3.75m-3.75 0a1.5 1.5 0 01-3 0m3 0a1.5 1.5 0 00-3 0m-9.75 0h9.75" />
</symbol>

<symbol id="adjustment-v" viewBox="0 0 24 24" fill="none" stroke="currentColor">
  <path stroke-linecap="round" stroke-linejoin="round" d="M6 13.5V3.75m0 9.75a1.5 1.5 0 010 3m0-3a1.5 1.5 0 000 3m0 3.75V16.5m12-3V3.75m0 9.75a1.5 1.5 0 010 3m0-3a1.5 1.5 0 000 3m0 3.75V16.5m-6-9V3.75m0 3.75a1.5 1.5 0 010 3m0-3a1.5 1.5 0 000 3m0 9.75V10.5" />
</symbol>

<symbol id="download-tray" viewBox="0 0 24 24" fill="none" stroke="currentColor">
  <path stroke-linecap="round" stroke-linejoin="round" d="M3 16.5v2.25A2.25 2.25 0 005.25 21h13.5A2.25 2.25 0 0021 18.75V16.5M16.5 12L12 16.5m0 0L7.5 12m4.5 4.5V3" />
</symbol>

<symbol id="reload-round" viewBox="0 0 24 24" fill="none" stroke="currentColor">
  <path stroke-linecap="round" stroke-linejoin="round" d="M16.023 9.348h4.992v-.001M2.985 19.644v-4.992m0 0h4.992m-4.993 0l3.181 3.183a8.25 8.25 0 0013.803-3.7M4.031 9.865a8.25 8.25 0 0113.803-3.7l3.181 3.182m0-4.991v4.99" />
</symbol>

<symbol id="upload" viewBox="0 0 24 24" fill="none" stroke="currentColor">
  <path stroke-linecap="round" stroke-linejoin="round" d="M3 16.5v2.25A2.25 2.25 0 005.25 21h13.5A2.25 2.25 0 0021 18.75V16.5m-13.5-9L12 3m0 0l4.5 4.5M12 3v13.5" />
</symbol>

<symbol id="clipboard" viewBox="0 0 24 24" fill="none" stroke="currentColor">
  <path stroke-linecap="round" stroke-linejoin="round" d="M11.35 3.836c-.065.21-.1.433-.1.664 0 .414.336.75.75.75h4.5a.75.75 0 00.75-.75 2.25 2.25 0 00-.1-.664m-5.8 0A2.251 2.251 0 0113.5 2.25H15c1.012 0 1.867.668 2.15 1.586m-5.8 0c-.376.023-.75.05-1.124.08C9.095 4.01 8.25 4.973 8.25 6.108V8.25m8.9-4.414c.376.023.75.05 1.124.08 1.131.094 1.976 1.057 1.976 2.192V16.5A2.25 2.25 0 0118 18.75h-2.25m-7.5-10.5H4.875c-.621 0-1.125.504-1.125 1.125v11.25c0 .621.504 1.125 1.125 1.125h9.75c.621 0 1.125-.504 1.125-1.125V18.75m-7.5-10.5h6.375c.621 0 1.125.504 1.125 1.125v9.375m-8.25-3l1.5 1.5 3-3.75" />
</symbol>






<!-- Tools -->

<symbol id="spanner" viewBox="0 0 24 24" fill="none" stroke="currentColor">
  <path stroke-linecap="round" stroke-linejoin="round" d="M4.867 19.125h.008v.008h-.008v-.008z" />
</symbol>

<symbol id="spanner-screwdriver" viewBox="0 0 24 24" fill="none" stroke="currentColor">
  <path stroke-linecap="round" stroke-linejoin="round" d="M11.42 15.17L17.25 21A2.652 2.652 0 0021 17.25l-5.877-5.877M11.42 15.17l2.496-3.03c.317-.384.74-.626 1.208-.766M11.42 15.17l-4.655 5.653a2.548 2.548 0 11-3.586-3.586l6.837-5.63m5.108-.233c.55-.164 1.163-.188 1.743-.14a4.5 4.5 0 004.486-6.336l-3.276 3.277a3.004 3.004 0 01-2.25-2.25l3.276-3.276a4.5 4.5 0 00-6.336 4.486c.091 1.076-.071 2.264-.904 2.95l-.102.085m-1.745 1.437L5.909 7.5H4.5L2.25 3.75l1.5-1.5L7.5 4.5v1.409l4.26 4.26m-1.745 1.437l1.745-1.437m6.615 8.206L15.75 15.75M4.867 19.125h.008v.008h-.008v-.008z" />
</symbol>

<symbol id="scissors" viewBox="0 0 24 24" fill="none" stroke="currentColor">
  <path stroke-linecap="round" stroke-linejoin="round" d="M7.848 8.25l1.536.887M7.848 8.25a3 3 0 11-5.196-3 3 3 0 015.196 3zm1.536.887a2.165 2.165 0 011.083 1.839c.005.351.054.695.14 1.024M9.384 9.137l2.077 1.199M7.848 15.75l1.536-.887m-1.536.887a3 3 0 11-5.196 3 3 3 0 015.196-3zm1.536-.887a2.165 2.165 0 001.083-1.838c.005-.352.054-.695.14-1.025m-1.223 2.863l2.077-1.199m0-3.328a4.323 4.323 0 012.068-1.379l5.325-1.628a4.5 4.5 0 012.48-.044l.803.215-7.794 4.5m-2.882-1.664A4.331 4.331 0 0010.607 12m3.736 0l7.794 4.5-.802.215a4.5 4.5 0 01-2.48-.043l-5.326-1.629a4.324 4.324 0 01-2.068-1.379M14.343 12l-2.882 1.664" />
</symbol>





<!-- Utility -->

<symbol id="zoom-in" viewBox="0 0 24 24" fill="none" stroke="currentColor">
  <path stroke-linecap="round" stroke-linejoin="round" d="M21 21l-5.197-5.197m0 0A7.5 7.5 0 105.196 5.196a7.5 7.5 0 0010.607 10.607zM10.5 7.5v6m3-3h-6" />
</symbol>

<symbol id="zoom-out" viewBox="0 0 24 24" fill="none" stroke="currentColor">
  <path stroke-linecap="round" stroke-linejoin="round" d="M21 21l-5.197-5.197m0 0A7.5 7.5 0 105.196 5.196a7.5 7.5 0 0010.607 10.607zM13.5 10.5h-6" />
</symbol>

<symbol id="magnifying-glass" viewBox="0 0 24 24" fill="none" stroke="currentColor">
  <path stroke-linecap="round" stroke-linejoin="round" d="M21 21l-5.197-5.197m0 0A7.5 7.5 0 105.196 5.196a7.5 7.5 0 0010.607 10.607z" />
</symbol>

<symbol id="shrink" viewBox="0 0 24 24" fill="none" stroke="currentColor">
  <path stroke-linecap="round" stroke-linejoin="round" d="M9 9V4.5M9 9H4.5M9 9L3.75 3.75M9 15v4.5M9 15H4.5M9 15l-5.25 5.25M15 9h4.5M15 9V4.5M15 9l5.25-5.25M15 15h4.5M15 15v4.5m0-4.5l5.25 5.25" />
</symbol>

<symbol id="expand" viewBox="0 0 24 24" fill="none" stroke="currentColor">
  <path stroke-linecap="round" stroke-linejoin="round" d="M3.75 3.75v4.5m0-4.5h4.5m-4.5 0L9 9M3.75 20.25v-4.5m0 4.5h4.5m-4.5 0L9 15M20.25 3.75h-4.5m4.5 0v4.5m0-4.5L15 9m5.25 11.25h-4.5m4.5 0v-4.5m0 4.5L15 15" />
</symbol>

<symbol id="undo" viewBox="0 0 24 24" fill="none" stroke="currentColor">
  <path stroke-linecap="round" stroke-linejoin="round" d="M9 15L3 9m0 0l6-6M3 9h12a6 6 0 010 12h-3" />
</symbol>

<symbol id="redo" viewBox="0 0 24 24" fill="none" stroke="currentColor">
  <path stroke-linecap="round" stroke-linejoin="round" d="M15 15l6-6m0 0l-6-6m6 6H9a6 6 0 000 12h3" />
</symbol>

<symbol id="reload-squircle" viewBox="0 0 24 24" fill="none" stroke="currentColor">
  <path stroke-linecap="round" stroke-linejoin="round" d="M19.5 12c0-1.232-.046-2.453-.138-3.662a4.006 4.006 0 00-3.7-3.7 48.678 48.678 0 00-7.324 0 4.006 4.006 0 00-3.7 3.7c-.017.22-.032.441-.046.662M19.5 12l3-3m-3 3l-3-3m-12 3c0 1.232.046 2.453.138 3.662a4.006 4.006 0 003.7 3.7 48.656 48.656 0 007.324 0 4.006 4.006 0 003.7-3.7c.017-.22.032-.441.046-.662M4.5 12l3 3m-3-3l-3 3" />
</symbol>

<symbol id="exit" viewBox="0 0 24 24" fill="none" stroke="currentColor">
  <path stroke-linecap="round" stroke-linejoin="round" d="M15.75 9V5.25A2.25 2.25 0 0013.5 3h-6a2.25 2.25 0 00-2.25 2.25v13.5A2.25 2.25 0 007.5 21h6a2.25 2.25 0 002.25-2.25V15M12 9l-3 3m0 0l3 3m-3-3h12.75" />
</symbol>




<!-- Navigation -->

<symbol id="map" viewBox="0 0 24 24" fill="none" stroke="currentColor">
  <path stroke-linecap="round" stroke-linejoin="round" d="M9 6.75V15m6-6v8.25m.503 3.498l4.875-2.437c.381-.19.622-.58.622-1.006V4.82c0-.836-.88-1.38-1.628-1.006l-3.869 1.934c-.317.159-.69.159-1.006 0L9.503 3.252a1.125 1.125 0 00-1.006 0L3.622 5.689C3.24 5.88 3 6.27 3 6.695V19.18c0 .836.88 1.38 1.628 1.006l3.869-1.934c.317-.159.69-.159 1.006 0l4.994 2.497c.317.158.69.158 1.006 0z" />
</symbol>

<symbol id="map-pin" viewBox="0 0 24 24" fill="none" stroke="currentColor">
  <path stroke-linecap="round" stroke-linejoin="round" d="M15 10.5a3 3 0 11-6 0 3 3 0 016 0z" />
  <path stroke-linecap="round" stroke-linejoin="round" d="M19.5 10.5c0 7.142-7.5 11.25-7.5 11.25S4.5 17.642 4.5 10.5a7.5 7.5 0 1115 0z" />
</symbol>




<!-- Camera and Video -->

<symbol id="photos" viewBox="0 0 24 24" fill="none" stroke="currentColor">
  <path stroke-linecap="round" stroke-linejoin="round" d="M2.25 15.75l5.159-5.159a2.25 2.25 0 013.182 0l5.159 5.159m-1.5-1.5l1.409-1.409a2.25 2.25 0 013.182 0l2.909 2.909m-18 3.75h16.5a1.5 1.5 0 001.5-1.5V6a1.5 1.5 0 00-1.5-1.5H3.75A1.5 1.5 0 002.25 6v12a1.5 1.5 0 001.5 1.5zm10.5-11.25h.008v.008h-.008V8.25zm.375 0a.375.375 0 11-.75 0 .375.375 0 01.75 0z" />
</symbol>

<symbol id="video-on" viewBox="0 0 24 24" fill="none" stroke="currentColor">
  <path stroke-linecap="round" d="M15.75 10.5l4.72-4.72a.75.75 0 011.28.53v11.38a.75.75 0 01-1.28.53l-4.72-4.72M4.5 18.75h9a2.25 2.25 0 002.25-2.25v-9a2.25 2.25 0 00-2.25-2.25h-9A2.25 2.25 0 002.25 7.5v9a2.25 2.25 0 002.25 2.25z" />
</symbol>

<symbol id="video-off" viewBox="0 0 24 24" fill="none" stroke="currentColor">
  <path stroke-linecap="round" stroke-linejoin="round" d="M15.75 10.5l4.72-4.72a.75.75 0 011.28.53v11.38a.75.75 0 01-1.28.53l-4.72-4.72M12 18.75H4.5a2.25 2.25 0 01-2.25-2.25V9m12.841 9.091L16.5 19.5m-1.409-1.409c.407-.407.659-.97.659-1.591v-9a2.25 2.25 0 00-2.25-2.25h-9c-.621 0-1.184.252-1.591.659m12.182 12.182L2.909 5.909M1.5 4.5l1.409 1.409" />
</symbol>

<symbol id="speaker" viewBox="0 0 24 24" fill="none" stroke="currentColor">
  <path stroke-linecap="round" stroke-linejoin="round" d="M19.114 5.636a9 9 0 010 12.728M16.463 8.288a5.25 5.25 0 010 7.424M6.75 8.25l4.72-4.72a.75.75 0 011.28.53v15.88a.75.75 0 01-1.28.53l-4.72-4.72H4.51c-.88 0-1.704-.507-1.938-1.354A9.01 9.01 0 012.25 12c0-.83.112-1.633.322-2.396C2.806 8.756 3.63 8.25 4.51 8.25H6.75z" />
</symbol>

<symbol id="speaker-off" viewBox="0 0 24 24" fill="none" stroke="currentColor">
  <path stroke-linecap="round" stroke-linejoin="round" d="M17.25 9.75L19.5 12m0 0l2.25 2.25M19.5 12l2.25-2.25M19.5 12l-2.25 2.25m-10.5-6l4.72-4.72a.75.75 0 011.28.531V19.94a.75.75 0 01-1.28.53l-4.72-4.72H4.51c-.88 0-1.704-.506-1.938-1.354A9.01 9.01 0 012.25 12c0-.83.112-1.633.322-2.395C2.806 8.757 3.63 8.25 4.51 8.25H6.75z" />
</symbol>

<symbol id="stop" viewBox="0 0 24 24" fill="none" stroke="currentColor">
  <path stroke-linecap="round" stroke-linejoin="round" d="M5.25 7.5A2.25 2.25 0 017.5 5.25h9a2.25 2.25 0 012.25 2.25v9a2.25 2.25 0 01-2.25 2.25h-9a2.25 2.25 0 01-2.25-2.25v-9z" />
</symbol>

<symbol id="stop-circle" viewBox="0 0 24 24" fill="none" stroke="currentColor">
  <path stroke-linecap="round" stroke-linejoin="round" d="M21 12a9 9 0 11-18 0 9 9 0 0118 0z" />
  <path stroke-linecap="round" stroke-linejoin="round" d="M9 9.563C9 9.252 9.252 9 9.563 9h4.874c.311 0 .563.252.563.563v4.874c0 .311-.252.563-.563.563H9.564A.562.562 0 019 14.437V9.564z" />
</symbol>

<symbol id="play" viewBox="0 0 24 24" fill="none" stroke="currentColor">
  <path stroke-linecap="round" stroke-linejoin="round" d="M5.25 5.653c0-.856.917-1.398 1.667-.986l11.54 6.348a1.125 1.125 0 010 1.971l-11.54 6.347a1.125 1.125 0 01-1.667-.985V5.653z" />
</symbol>

<symbol id="play-pause" viewBox="0 0 24 24" fill="none" stroke="currentColor">
  <path stroke-linecap="round" stroke-linejoin="round" d="M21 7.5V18M15 7.5V18M3 16.811V8.69c0-.864.933-1.406 1.683-.977l7.108 4.061a1.125 1.125 0 010 1.954l-7.108 4.061A1.125 1.125 0 013 16.811z" />
</symbol>

<symbol id="play-circle" viewBox="0 0 24 24" fill="none" stroke="currentColor">
  <path stroke-linecap="round" stroke-linejoin="round" d="M21 12a9 9 0 11-18 0 9 9 0 0118 0z" />
  <path stroke-linecap="round" stroke-linejoin="round" d="M15.91 11.672a.375.375 0 010 .656l-5.603 3.113a.375.375 0 01-.557-.328V8.887c0-.286.307-.466.557-.327l5.603 3.112z" />
</symbol>

<symbol id="pause" viewBox="0 0 24 24" fill="none" stroke="currentColor">
  <path stroke-linecap="round" stroke-linejoin="round" d="M15.75 5.25v13.5m-7.5-13.5v13.5" />
</symbol>

<symbol id="pause-circle" viewBox="0 0 24 24" fill="none" stroke="currentColor">
  <path stroke-linecap="round" stroke-linejoin="round" d="M14.25 9v6m-4.5 0V9M21 12a9 9 0 11-18 0 9 9 0 0118 0z" />
</symbol>

<symbol id="microphone" viewBox="0 0 24 24" fill="none" stroke="currentColor">
  <path stroke-linecap="round" stroke-linejoin="round" d="M12 18.75a6 6 0 006-6v-1.5m-6 7.5a6 6 0 01-6-6v-1.5m6 7.5v3.75m-3.75 0h7.5M12 15.75a3 3 0 01-3-3V4.5a3 3 0 116 0v8.25a3 3 0 01-3 3z" />
</symbol>

<symbol id="forward" viewBox="0 0 24 24" fill="none" stroke="currentColor">
  <path stroke-linecap="round" stroke-linejoin="round" d="M3 8.688c0-.864.933-1.405 1.683-.977l7.108 4.062a1.125 1.125 0 010 1.953l-7.108 4.062A1.125 1.125 0 013 16.81V8.688zM12.75 8.688c0-.864.933-1.405 1.683-.977l7.108 4.062a1.125 1.125 0 010 1.953l-7.108 4.062a1.125 1.125 0 01-1.683-.977V8.688z" />
</symbol>

<symbol id="backward" viewBox="0 0 24 24" fill="none" stroke="currentColor">
  <path stroke-linecap="round" stroke-linejoin="round" d="M21 16.811c0 .864-.933 1.405-1.683.977l-7.108-4.062a1.125 1.125 0 010-1.953l7.108-4.062A1.125 1.125 0 0121 8.688v8.123zM11.25 16.811c0 .864-.933 1.405-1.683.977l-7.108-4.062a1.125 1.125 0 010-1.953L9.567 7.71a1.125 1.125 0 011.683.977v8.123z" />
</symbol>




<!-- Users / Profiles -->

<symbol id="user" viewBox="0 0 24 24" fill="none" stroke="currentColor">
  <path stroke-linecap="round" stroke-linejoin="round" d="M15.75 6a3.75 3.75 0 11-7.5 0 3.75 3.75 0 017.5 0zM4.501 20.118a7.5 7.5 0 0114.998 0A17.933 17.933 0 0112 21.75c-2.676 0-5.216-.584-7.499-1.632z" />
</symbol>

<symbol id="user-circle" viewBox="0 0 24 24" fill="none" stroke="currentColor">
  <path stroke-linecap="round" stroke-linejoin="round" d="M17.982 18.725A7.488 7.488 0 0012 15.75a7.488 7.488 0 00-5.982 2.975m11.963 0a9 9 0 10-11.963 0m11.963 0A8.966 8.966 0 0112 21a8.966 8.966 0 01-5.982-2.275M15 9.75a3 3 0 11-6 0 3 3 0 016 0z" />
</symbol>

<symbol id="user-group" viewBox="0 0 24 24" fill="none" stroke="currentColor">
  <path stroke-linecap="round" stroke-linejoin="round" d="M18 18.72a9.094 9.094 0 003.741-.479 3 3 0 00-4.682-2.72m.94 3.198l.001.031c0 .225-.012.447-.037.666A11.944 11.944 0 0112 21c-2.17 0-4.207-.576-5.963-1.584A6.062 6.062 0 016 18.719m12 0a5.971 5.971 0 00-.941-3.197m0 0A5.995 5.995 0 0012 12.75a5.995 5.995 0 00-5.058 2.772m0 0a3 3 0 00-4.681 2.72 8.986 8.986 0 003.74.477m.94-3.197a5.971 5.971 0 00-.94 3.197M15 6.75a3 3 0 11-6 0 3 3 0 016 0zm6 3a2.25 2.25 0 11-4.5 0 2.25 2.25 0 014.5 0zm-13.5 0a2.25 2.25 0 11-4.5 0 2.25 2.25 0 014.5 0z" />
</symbol>

<symbol id="user-add" viewBox="0 0 24 24" fill="none" stroke="currentColor">
  <path stroke-linecap="round" stroke-linejoin="round" d="M19 7.5v3m0 0v3m0-3h3m-3 0h-3m-2.25-4.125a3.375 3.375 0 11-6.75 0 3.375 3.375 0 016.75 0zM4 19.235v-.11a6.375 6.375 0 0112.75 0v.109A12.318 12.318 0 0110.374 21c-2.331 0-4.512-.645-6.374-1.766z" />
</symbol>

<symbol id="user-remove" viewBox="0 0 24 24" fill="none" stroke="currentColor">
  <path stroke-linecap="round" stroke-linejoin="round" d="M22 10.5h-6m-2.25-4.125a3.375 3.375 0 11-6.75 0 3.375 3.375 0 016.75 0zM4 19.235v-.11a6.375 6.375 0 0112.75 0v.109A12.318 12.318 0 0110.374 21c-2.331 0-4.512-.645-6.374-1.766z" />
</symbol>

<symbol id="contact-card" viewBox="0 0 24 24" fill="none" stroke="currentColor">
  <path stroke-linecap="round" stroke-linejoin="round" d="M15 9h3.75M15 12h3.75M15 15h3.75M4.5 19.5h15a2.25 2.25 0 002.25-2.25V6.75A2.25 2.25 0 0019.5 4.5h-15a2.25 2.25 0 00-2.25 2.25v10.5A2.25 2.25 0 004.5 19.5zm6-10.125a1.875 1.875 0 11-3.75 0 1.875 1.875 0 013.75 0zm1.294 6.336a6.721 6.721 0 01-3.17.789 6.721 6.721 0 01-3.168-.789 3.376 3.376 0 016.338 0z" />
</symbol>

<symbol id="inbox-tray" viewBox="0 0 24 24" fill="none" stroke="currentColor">
  <path stroke-linecap="round" stroke-linejoin="round" d="M2.25 13.5h3.86a2.25 2.25 0 012.012 1.244l.256.512a2.25 2.25 0 002.013 1.244h3.218a2.25 2.25 0 002.013-1.244l.256-.512a2.25 2.25 0 012.013-1.244h3.859m-19.5.338V18a2.25 2.25 0 002.25 2.25h15A2.25 2.25 0 0021.75 18v-4.162c0-.224-.034-.447-.1-.661L19.24 5.338a2.25 2.25 0 00-2.15-1.588H6.911a2.25 2.25 0 00-2.15 1.588L2.35 13.177a2.25 2.25 0 00-.1.661z" />
</symbol>

<symbol id="inbox-tray-arrow" viewBox="0 0 24 24" fill="none" stroke="currentColor">
  <path stroke-linecap="round" stroke-linejoin="round" d="M9 3.75H6.912a2.25 2.25 0 00-2.15 1.588L2.35 13.177a2.25 2.25 0 00-.1.661V18a2.25 2.25 0 002.25 2.25h15A2.25 2.25 0 0021.75 18v-4.162c0-.224-.034-.447-.1-.661L19.24 5.338a2.25 2.25 0 00-2.15-1.588H15M2.25 13.5h3.86a2.25 2.25 0 012.012 1.244l.256.512a2.25 2.25 0 002.013 1.244h3.218a2.25 2.25 0 002.013-1.244l.256-.512a2.25 2.25 0 012.013-1.244h3.859M12 3v8.25m0 0l-3-3m3 3l3-3" />
</symbol>




<!-- ECommerce -->

<symbol id="cart" viewBox="0 0 24 24" fill="none" stroke="currentColor">
  <path stroke-linecap="round" stroke-linejoin="round" d="M2.25 3h1.386c.51 0 .955.343 1.087.835l.383 1.437M7.5 14.25a3 3 0 00-3 3h15.75m-12.75-3h11.218c1.121-2.3 2.1-4.684 2.924-7.138a60.114 60.114 0 00-16.536-1.84M7.5 14.25L5.106 5.272M6 20.25a.75.75 0 11-1.5 0 .75.75 0 011.5 0zm12.75 0a.75.75 0 11-1.5 0 .75.75 0 011.5 0z" />
</symbol>

<symbol id="bag" viewBox="0 0 24 24" fill="none" stroke="currentColor">
  <path stroke-linecap="round" stroke-linejoin="round" d="M15.75 10.5V6a3.75 3.75 0 10-7.5 0v4.5m11.356-1.993l1.263 12c.07.665-.45 1.243-1.119 1.243H4.25a1.125 1.125 0 01-1.12-1.243l1.264-12A1.125 1.125 0 015.513 7.5h12.974c.576 0 1.059.435 1.119 1.007zM8.625 10.5a.375.375 0 11-.75 0 .375.375 0 01.75 0zm7.5 0a.375.375 0 11-.75 0 .375.375 0 01.75 0z" />
</symbol>

<symbol id="bank-card" viewBox="0 0 24 24" fill="none" stroke="currentColor">
  <path stroke-linecap="round" stroke-linejoin="round" d="M2.25 8.25h19.5M2.25 9h19.5m-16.5 5.25h6m-6 2.25h3m-3.75 3h15a2.25 2.25 0 002.25-2.25V6.75A2.25 2.25 0 0019.5 4.5h-15a2.25 2.25 0 00-2.25 2.25v10.5A2.25 2.25 0 004.5 19.5z" />
</symbol>




<!-- Security -->

<symbol id="shield-tick" viewBox="0 0 24 24" fill="none" stroke="currentColor">
  <path stroke-linecap="round" stroke-linejoin="round" d="M9 12.75L11.25 15 15 9.75m-3-7.036A11.959 11.959 0 013.598 6 11.99 11.99 0 003 9.749c0 5.592 3.824 10.29 9 11.623 5.176-1.332 9-6.03 9-11.622 0-1.31-.21-2.571-.598-3.751h-.152c-3.196 0-6.1-1.248-8.25-3.285z" />
</symbol>

<symbol id="shield-exclaim" viewBox="0 0 24 24" fill="none" stroke="currentColor">
  <path stroke-linecap="round" stroke-linejoin="round" d="M12 9v3.75m0-10.036A11.959 11.959 0 013.598 6 11.99 11.99 0 003 9.75c0 5.592 3.824 10.29 9 11.622 5.176-1.332 9-6.03 9-11.622 0-1.31-.21-2.57-.598-3.75h-.152c-3.196 0-6.1-1.249-8.25-3.286zm0 13.036h.008v.008H12v-.008z" />
</symbol>

<symbol id="locked" viewBox="0 0 24 24" fill="none" stroke="currentColor">
  <path stroke-linecap="round" stroke-linejoin="round" d="M16.5 10.5V6.75a4.5 4.5 0 10-9 0v3.75m-.75 11.25h10.5a2.25 2.25 0 002.25-2.25v-6.75a2.25 2.25 0 00-2.25-2.25H6.75a2.25 2.25 0 00-2.25 2.25v6.75a2.25 2.25 0 002.25 2.25z" />
</symbol>

<symbol id="unlocked" viewBox="0 0 24 24" fill="none" stroke="currentColor">
  <path stroke-linecap="round" stroke-linejoin="round" d="M13.5 10.5V6.75a4.5 4.5 0 119 0v3.75M3.75 21.75h10.5a2.25 2.25 0 002.25-2.25v-6.75a2.25 2.25 0 00-2.25-2.25H3.75a2.25 2.25 0 00-2.25 2.25v6.75a2.25 2.25 0 002.25 2.25z" />
</symbol>

<symbol id="key" viewBox="0 0 24 24" fill="none" stroke="currentColor">
  <path stroke-linecap="round" stroke-linejoin="round" d="M15.75 5.25a3 3 0 013 3m3 0a6 6 0 01-7.029 5.912c-.563-.097-1.159.026-1.563.43L10.5 17.25H8.25v2.25H6v2.25H2.25v-2.818c0-.597.237-1.17.659-1.591l6.499-6.499c.404-.404.527-1 .43-1.563A6 6 0 1121.75 8.25z" />
</symbol>


<!-- Office -->

<symbol id="printer" viewBox="0 0 24 24" fill="none" stroke="currentColor">
  <path stroke-linecap="round" stroke-linejoin="round" d="M6.72 13.829c-.24.03-.48.062-.72.096m.72-.096a42.415 42.415 0 0110.56 0m-10.56 0L6.34 18m10.94-4.171c.24.03.48.062.72.096m-.72-.096L17.66 18m0 0l.229 2.523a1.125 1.125 0 01-1.12 1.227H7.231c-.662 0-1.18-.568-1.12-1.227L6.34 18m11.318 0h1.091A2.25 2.25 0 0021 15.75V9.456c0-1.081-.768-2.015-1.837-2.175a48.055 48.055 0 00-1.913-.247M6.34 18H5.25A2.25 2.25 0 013 15.75V9.456c0-1.081.768-2.015 1.837-2.175a48.041 48.041 0 011.913-.247m10.5 0a48.536 48.536 0 00-10.5 0m10.5 0V3.375c0-.621-.504-1.125-1.125-1.125h-8.25c-.621 0-1.125.504-1.125 1.125v3.659M18 10.5h.008v.008H18V10.5zm-3 0h.008v.008H15V10.5z" />
</symbol>

<symbol id="pencil" viewBox="0 0 24 24" fill="none" stroke="currentColor">
  <path stroke-linecap="round" stroke-linejoin="round" d="M16.862 4.487l1.687-1.688a1.875 1.875 0 112.652 2.652L6.832 19.82a4.5 4.5 0 01-1.897 1.13l-2.685.8.8-2.685a4.5 4.5 0 011.13-1.897L16.863 4.487zm0 0L19.5 7.125" />
</symbol>

<symbol id="pencil-square" viewBox="0 0 24 24" fill="none" stroke="currentColor">
  <path stroke-linecap="round" stroke-linejoin="round" d="M16.862 4.487l1.687-1.688a1.875 1.875 0 112.652 2.652L10.582 16.07a4.5 4.5 0 01-1.897 1.13L6 18l.8-2.685a4.5 4.5 0 011.13-1.897l8.932-8.931zm0 0L19.5 7.125M18 14v4.75A2.25 2.25 0 0115.75 21H5.25A2.25 2.25 0 013 18.75V8.25A2.25 2.25 0 015.25 6H10" />
</symbol>

<symbol id="paperclip" viewBox="0 0 24 24" fill="none" stroke="currentColor">
  <path stroke-linecap="round" stroke-linejoin="round" d="M18.375 12.739l-7.693 7.693a4.5 4.5 0 01-6.364-6.364l10.94-10.94A3 3 0 1119.5 7.372L8.552 18.32m.009-.01l-.01.01m5.699-9.941l-7.81 7.81a1.5 1.5 0 002.112 2.13" />
</symbol>

<symbol id="paintbrush" viewBox="0 0 24 24" fill="none" stroke="currentColor">
  <path stroke-linecap="round" stroke-linejoin="round" d="M9.53 16.122a3 3 0 00-5.78 1.128 2.25 2.25 0 01-2.4 2.245 4.5 4.5 0 008.4-2.245c0-.399-.078-.78-.22-1.128zm0 0a15.998 15.998 0 003.388-1.62m-5.043-.025a15.994 15.994 0 011.622-3.395m3.42 3.42a15.995 15.995 0 004.764-4.648l3.876-5.814a1.151 1.151 0 00-1.597-1.597L14.146 6.32a15.996 15.996 0 00-4.649 4.763m3.42 3.42a6.776 6.776 0 00-3.42-3.42" />
</symbol>


<!-- Symbols -->

<symbol id="question-mark-circle" viewBox="0 0 24 24" fill="none" stroke="currentColor">
  <path stroke-linecap="round" stroke-linejoin="round" d="M9.879 7.519c1.171-1.025 3.071-1.025 4.242 0 1.172 1.025 1.172 2.687 0 3.712-.203.179-.43.326-.67.442-.745.361-1.45.999-1.45 1.827v.75M21 12a9 9 0 11-18 0 9 9 0 0118 0zm-9 5.25h.008v.008H12v-.008z" />
</symbol>

<symbol id="plus" viewBox="0 0 24 24" fill="none" stroke="currentColor">
  <path stroke-linecap="round" stroke-linejoin="round" d="M12 4.5v15m7.5-7.5h-15" />
</symbol>

<symbol id="plus-small" viewBox="0 0 24 24" fill="none" stroke="currentColor">
  <path stroke-linecap="round" stroke-linejoin="round" d="M12 6v12m6-6H6" />
</symbol>

<symbol id="plus-circle" viewBox="0 0 24 24" fill="none" stroke="currentColor">
  <path stroke-linecap="round" stroke-linejoin="round" d="M12 9v6m3-3H9m12 0a9 9 0 11-18 0 9 9 0 0118 0z" />
</symbol>

<symbol id="minus" viewBox="0 0 24 24" fill="none" stroke="currentColor">
  <path stroke-linecap="round" stroke-linejoin="round" d="M19.5 12h-15" />
</symbol>

<symbol id="minus-small" viewBox="0 0 24 24" fill="none" stroke="currentColor">
  <path stroke-linecap="round" stroke-linejoin="round" d="M18 12H6" />
</symbol>

<symbol id="minus-circle" viewBox="0 0 24 24" fill="none" stroke="currentColor">
  <path stroke-linecap="round" stroke-linejoin="round" d="M15 12H9m12 0a9 9 0 11-18 0 9 9 0 0118 0z" />
</symbol>

<symbol id="no-access" viewBox="0 0 24 24" fill="none" stroke="currentColor">
  <path stroke-linecap="round" stroke-linejoin="round" d="M18.364 18.364A9 9 0 005.636 5.636m12.728 12.728A9 9 0 015.636 5.636m12.728 12.728L5.636 5.636" />
</symbol>

<symbol id="information-circle" viewBox="0 0 24 24" fill="none" stroke="currentColor">
  <path stroke-linecap="round" stroke-linejoin="round" d="M11.25 11.25l.041-.02a.75.75 0 011.063.852l-.708 2.836a.75.75 0 001.063.853l.041-.021M21 12a9 9 0 11-18 0 9 9 0 0118 0zm-9-3.75h.008v.008H12V8.25z" />
</symbol>

<symbol id="tick" viewBox="0 0 24 24" fill="none" stroke="currentColor">
  <path stroke-linecap="round" stroke-linejoin="round" d="M4.5 12.75l6 6 9-13.5" />
</symbol>

<symbol id="tick-circle" viewBox="0 0 24 24" fill="none" stroke="currentColor">
  <path stroke-linecap="round" stroke-linejoin="round" d="M9 12.75L11.25 15 15 9.75M21 12a9 9 0 11-18 0 9 9 0 0118 0z" />
</symbol>

<symbol id="tick-badge" viewBox="0 0 24 24" fill="none" stroke="currentColor">
  <path stroke-linecap="round" stroke-linejoin="round" d="M9 12.75L11.25 15 15 9.75M21 12c0 1.268-.63 2.39-1.593 3.068a3.745 3.745 0 01-1.043 3.296 3.745 3.745 0 01-3.296 1.043A3.745 3.745 0 0112 21c-1.268 0-2.39-.63-3.068-1.593a3.746 3.746 0 01-3.296-1.043 3.745 3.745 0 01-1.043-3.296A3.745 3.745 0 013 12c0-1.268.63-2.39 1.593-3.068a3.745 3.745 0 011.043-3.296 3.746 3.746 0 013.296-1.043A3.746 3.746 0 0112 3c1.268 0 2.39.63 3.068 1.593a3.746 3.746 0 013.296 1.043 3.746 3.746 0 011.043 3.296A3.745 3.745 0 0121 12z" />
</symbol>

<symbol id="bell-alert" viewBox="0 0 24 24" fill="none" stroke="currentColor">
  <path stroke-linecap="round" stroke-linejoin="round" d="M14.857 17.082a23.848 23.848 0 005.454-1.31A8.967 8.967 0 0118 9.75v-.7V9A6 6 0 006 9v.75a8.967 8.967 0 01-2.312 6.022c1.733.64 3.56 1.085 5.455 1.31m5.714 0a24.255 24.255 0 01-5.714 0m5.714 0a3 3 0 11-5.714 0M3.124 7.5A8.969 8.969 0 015.292 3m13.416 0a8.969 8.969 0 012.168 4.5" />
</symbol>

<symbol id="bell" viewBox="0 0 24 24" fill="none" stroke="currentColor">
  <path stroke-linecap="round" stroke-linejoin="round" d="M14.857 17.082a23.848 23.848 0 005.454-1.31A8.967 8.967 0 0118 9.75v-.7V9A6 6 0 006 9v.75a8.967 8.967 0 01-2.312 6.022c1.733.64 3.56 1.085 5.455 1.31m5.714 0a24.255 24.255 0 01-5.714 0m5.714 0a3 3 0 11-5.714 0" />
</symbol>

<symbol id="bars-3" viewBox="0 0 24 24" fill="none" stroke="currentColor">
  <path stroke-linecap="round" stroke-linejoin="round" d="M3.75 6.75h16.5M3.75 12h16.5m-16.5 5.25h16.5" />
</symbol>

<symbol id="bars-2" viewBox="0 0 24 24" fill="none" stroke="currentColor">
  <path stroke-linecap="round" stroke-linejoin="round" d="M3.75 9h16.5m-16.5 6.75h16.5" />
</symbol>

<symbol id="home" viewBox="0 0 24 24" fill="none" stroke="currentColor">
  <path stroke-linecap="round" stroke-linejoin="round" d="M2.25 12l8.954-8.955c.44-.439 1.152-.439 1.591 0L21.75 12M4.5 9.75v10.125c0 .621.504 1.125 1.125 1.125H9.75v-4.875c0-.621.504-1.125 1.125-1.125h2.25c.621 0 1.125.504 1.125 1.125V21h4.125c.621 0 1.125-.504 1.125-1.125V9.75M8.25 21h8.25" />
</symbol>

<symbol id="flag" viewBox="0 0 24 24" fill="none" stroke="currentColor">
  <path stroke-linecap="round" stroke-linejoin="round" d="M3 3v1.5M3 21v-6m0 0l2.77-.693a9 9 0 016.208.682l.108.054a9 9 0 006.086.71l3.114-.732a48.524 48.524 0 01-.005-10.499l-3.11.732a9 9 0 01-6.085-.711l-.108-.054a9 9 0 00-6.208-.682L3 4.5M3 15V4.5" />
</symbol>

<symbol id="at-symbol" viewBox="0 0 24 24" fill="none" stroke="currentColor">
  <path stroke-linecap="round" d="M16.5 12a4.5 4.5 0 11-9 0 4.5 4.5 0 019 0zm0 0c0 1.657 1.007 3 2.25 3S21 13.657 21 12a9 9 0 10-2.636 6.364M16.5 12V8.25" />
</symbol>

<symbol id="backspace" viewBox="0 0 24 24" fill="none" stroke="currentColor">
  <path stroke-linecap="round" stroke-linejoin="round" d="M12 9.75L14.25 12m0 0l2.25 2.25M14.25 12l2.25-2.25M14.25 12L12 14.25m-2.58 4.92l-6.375-6.375a1.125 1.125 0 010-1.59L9.42 4.83c.211-.211.498-.33.796-.33H19.5a2.25 2.25 0 012.25 2.25v10.5a2.25 2.25 0 01-2.25 2.25h-9.284c-.298 0-.585-.119-.796-.33z" />
</symbol>

<symbol id="x" viewBox="0 0 24 24" fill="none" stroke="currentColor">
  <path stroke-linecap="round" stroke-linejoin="round" d="M6 18L18 6M6 6l12 12" />
</symbol>

<symbol id="x-circle" viewBox="0 0 24 24" fill="none" stroke="currentColor">
  <path stroke-linecap="round" stroke-linejoin="round" d="M9.75 9.75l4.5 4.5m0-4.5l-4.5 4.5M21 12a9 9 0 11-18 0 9 9 0 0118 0z" />
</symbol>




<!-- Phone -->

<symbol id="call-hangup" viewBox="0 0 24 24" fill="none" stroke="currentColor">
  <path stroke-linecap="round" stroke-linejoin="round" d="M14.25 9.75v-4.5m0 4.5h4.5m-4.5 0l6-6m-3 18c-8.284 0-15-6.716-15-15V4.5A2.25 2.25 0 014.5 2.25h1.372c.516 0 .966.351 1.091.852l1.106 4.423c.11.44-.054.902-.417 1.173l-1.293.97a1.062 1.062 0 00-.38 1.21 12.035 12.035 0 007.143 7.143c.441.162.928-.004 1.21-.38l.97-1.293a1.125 1.125 0 011.173-.417l4.423 1.106c.5.125.852.575.852 1.091V19.5a2.25 2.25 0 01-2.25 2.25h-2.25z" />
</symbol>

<symbol id="call-success" viewBox="0 0 24 24" fill="none" stroke="currentColor">
  <path stroke-linecap="round" stroke-linejoin="round" d="M20.25 3.75v4.5m0-4.5h-4.5m4.5 0l-6 6m3 12c-8.284 0-15-6.716-15-15V4.5A2.25 2.25 0 014.5 2.25h1.372c.516 0 .966.351 1.091.852l1.106 4.423c.11.44-.054.902-.417 1.173l-1.293.97a1.062 1.062 0 00-.38 1.21 12.035 12.035 0 007.143 7.143c.441.162.928-.004 1.21-.38l.97-1.293a1.125 1.125 0 011.173-.417l4.423 1.106c.5.125.852.575.852 1.091V19.5a2.25 2.25 0 01-2.25 2.25h-2.25z" />
</symbol>

<symbol id="call-missed" viewBox="0 0 24 24" fill="none" stroke="currentColor">
  <path stroke-linecap="round" stroke-linejoin="round" d="M15.75 3.75L18 6m0 0l2.25 2.25M18 6l2.25-2.25M18 6l-2.25 2.25m1.5 13.5c-8.284 0-15-6.716-15-15V4.5A2.25 2.25 0 014.5 2.25h1.372c.516 0 .966.351 1.091.852l1.106 4.423c.11.44-.054.902-.417 1.173l-1.293.97a1.062 1.062 0 00-.38 1.21 12.035 12.035 0 007.143 7.143c.441.162.928-.004 1.21-.38l.97-1.293a1.125 1.125 0 011.173-.417l4.423 1.106c.5.125.852.575.852 1.091V19.5a2.25 2.25 0 01-2.25 2.25h-2.25z" />
</symbol>

<symbol id="phone" viewBox="0 0 24 24" fill="none" stroke="currentColor">
  <path stroke-linecap="round" stroke-linejoin="round" d="M2.25 6.75c0 8.284 6.716 15 15 15h2.25a2.25 2.25 0 002.25-2.25v-1.372c0-.516-.351-.966-.852-1.091l-4.423-1.106c-.44-.11-.902.055-1.173.417l-.97 1.293c-.282.376-.769.542-1.21.38a12.035 12.035 0 01-7.143-7.143c-.162-.441.004-.928.38-1.21l1.293-.97c.363-.271.527-.734.417-1.173L6.963 3.102a1.125 1.125 0 00-1.091-.852H4.5A2.25 2.25 0 002.25 4.5v2.25z" />
</symbol>




<!-- Reactions -->

<symbol id="thumb-up" viewBox="0 0 24 24" fill="none" stroke="currentColor">
  <path stroke-linecap="round" stroke-linejoin="round" d="M6.633 10.5c.806 0 1.533-.446 2.031-1.08a9.041 9.041 0 012.861-2.4c.723-.384 1.35-.956 1.653-1.715a4.498 4.498 0 00.322-1.672V3a.75.75 0 01.75-.75A2.25 2.25 0 0116.5 4.5c0 1.152-.26 2.243-.723 3.218-.266.558.107 1.282.725 1.282h3.126c1.026 0 1.945.694 2.054 1.715.045.422.068.85.068 1.285a11.95 11.95 0 01-2.649 7.521c-.388.482-.987.729-1.605.729H13.48c-.483 0-.964-.078-1.423-.23l-3.114-1.04a4.501 4.501 0 00-1.423-.23H5.904M14.25 9h2.25M5.904 18.75c.083.205.173.405.27.602.197.4-.078.898-.523.898h-.908c-.889 0-1.713-.518-1.972-1.368a12 12 0 01-.521-3.507c0-1.553.295-3.036.831-4.398C3.387 10.203 4.167 9.75 5 9.75h1.053c.472 0 .745.556.5.96a8.958 8.958 0 00-1.302 4.665c0 1.194.232 2.333.654 3.375z" />
</symbol>

<symbol id="thumb-down" viewBox="0 0 24 24" fill="none" stroke="currentColor">
  <path stroke-linecap="round" stroke-linejoin="round" d="M7.5 15h2.25m8.024-9.75c.011.05.028.1.052.148.591 1.2.924 2.55.924 3.977a8.96 8.96 0 01-.999 4.125m.023-8.25c-.076-.365.183-.75.575-.75h.908c.889 0 1.713.518 1.972 1.368.339 1.11.521 2.287.521 3.507 0 1.553-.295 3.036-.831 4.398C20.613 14.547 19.833 15 19 15h-1.053c-.472 0-.745-.556-.5-.96a8.95 8.95 0 00.303-.54m.023-8.25H16.48a4.5 4.5 0 01-1.423-.23l-3.114-1.04a4.5 4.5 0 00-1.423-.23H6.504c-.618 0-1.217.247-1.605.729A11.95 11.95 0 002.25 12c0 .434.023.863.068 1.285C2.427 14.306 3.346 15 4.372 15h3.126c.618 0 .991.724.725 1.282A7.471 7.471 0 007.5 19.5a2.25 2.25 0 002.25 2.25.75.75 0 00.75-.75v-.633c0-.573.11-1.14.322-1.672.304-.76.93-1.33 1.653-1.715a9.04 9.04 0 002.86-2.4c.498-.634 1.226-1.08 2.032-1.08h.384" />
</symbol>

<symbol id="heart-empty" viewBox="0 0 24 24" fill="none" stroke="currentColor">
  <path stroke-linecap="round" stroke-linejoin="round" d="M21 8.25c0-2.485-2.099-4.5-4.688-4.5-1.935 0-3.597 1.126-4.312 2.733-.715-1.607-2.377-2.733-4.313-2.733C5.1 3.75 3 5.765 3 8.25c0 7.22 9 12 9 12s9-4.78 9-12z" />
</symbol>

<symbol id="heart-full" viewBox="0 0 24 24" fill="none" stroke="currentColor">
  <path d="M11.645 20.91l-.007-.003-.022-.012a15.247 15.247 0 01-.383-.218 25.18 25.18 0 01-4.244-3.17C4.688 15.36 2.25 12.174 2.25 8.25 2.25 5.322 4.714 3 7.688 3A5.5 5.5 0 0112 5.052 5.5 5.5 0 0116.313 3c2.973 0 5.437 2.322 5.437 5.25 0 3.925-2.438 7.111-4.739 9.256a25.175 25.175 0 01-4.244 3.17 15.247 15.247 0 01-.383.219l-.022.012-.007.004-.003.001a.752.752 0 01-.704 0l-.003-.001z" />
</symbol>

<symbol id="star-empty" viewBox="0 0 24 24" fill="none" stroke="currentColor">
  <path stroke-linecap="round" stroke-linejoin="round" d="M11.48 3.499a.562.562 0 011.04 0l2.125 5.111a.563.563 0 00.475.345l5.518.442c.499.04.701.663.321.988l-4.204 3.602a.563.563 0 00-.182.557l1.285 5.385a.562.562 0 01-.84.61l-4.725-2.885a.563.563 0 00-.586 0L6.982 20.54a.562.562 0 01-.84-.61l1.285-5.386a.562.562 0 00-.182-.557l-4.204-3.602a.563.563 0 01.321-.988l5.518-.442a.563.563 0 00.475-.345L11.48 3.5z" />
</symbol>

<symbol id="star-full" viewBox="0 0 24 24" fill="none" stroke="currentColor">
  <path fill-rule="evenodd" d="M10.788 3.21c.448-1.077 1.976-1.077 2.424 0l2.082 5.007 5.404.433c1.164.093 1.636 1.545.749 2.305l-4.117 3.527 1.257 5.273c.271 1.136-.964 2.033-1.96 1.425L12 18.354 7.373 21.18c-.996.608-2.231-.29-1.96-1.425l1.257-5.273-4.117-3.527c-.887-.76-.415-2.212.749-2.305l5.404-.433 2.082-5.006z" clip-rule="evenodd" />
</symbol>





<!-- Social -->

<symbol id="chat-lined-text" viewBox="0 0 24 24" fill="none" stroke="currentColor">
  <path stroke-linecap="round" stroke-linejoin="round" d="M7.5 8.25h9m-9 3H12m-9.75 1.51c0 1.6 1.123 2.994 2.707 3.227 1.129.166 2.27.293 3.423.379.35.026.67.21.865.501L12 21l2.755-4.133a1.14 1.14 0 01.865-.501 48.172 48.172 0 003.423-.379c1.584-.233 2.707-1.626 2.707-3.228V6.741c0-1.602-1.123-2.995-2.707-3.228A48.394 48.394 0 0012 3c-2.392 0-4.744.175-7.043.513C3.373 3.746 2.25 5.14 2.25 6.741v6.018z" />
</symbol>

<symbol id="chat-dotted-text" viewBox="0 0 24 24" fill="none" stroke="currentColor">
  <path stroke-linecap="round" stroke-linejoin="round" d="M8.625 9.75a.375.375 0 11-.75 0 .375.375 0 01.75 0zm0 0H8.25m4.125 0a.375.375 0 11-.75 0 .375.375 0 01.75 0zm0 0H12m4.125 0a.375.375 0 11-.75 0 .375.375 0 01.75 0zm0 0h-.375m-13.5 3.01c0 1.6 1.123 2.994 2.707 3.227 1.087.16 2.185.283 3.293.369V21l4.184-4.183a1.14 1.14 0 01.778-.332 48.294 48.294 0 005.83-.498c1.585-.233 2.708-1.626 2.708-3.228V6.741c0-1.602-1.123-2.995-2.707-3.228A48.394 48.394 0 0012 3c-2.392 0-4.744.175-7.043.513C3.373 3.746 2.25 5.14 2.25 6.741v6.018z" />
</symbol>

<symbol id="chat-center-point" viewBox="0 0 24 24" fill="none" stroke="currentColor">
  <path stroke-linecap="round" stroke-linejoin="round" d="M2.25 12.76c0 1.6 1.123 2.994 2.707 3.227 1.068.157 2.148.279 3.238.364.466.037.893.281 1.153.671L12 21l2.652-3.978c.26-.39.687-.634 1.153-.67 1.09-.086 2.17-.208 3.238-.365 1.584-.233 2.707-1.626 2.707-3.228V6.741c0-1.602-1.123-2.995-2.707-3.228A48.394 48.394 0 0012 3c-2.392 0-4.744.175-7.043.513C3.373 3.746 2.25 5.14 2.25 6.741v6.018z" />
</symbol>

<symbol id="chat-left-point" viewBox="0 0 24 24" fill="none" stroke="currentColor">
  <path stroke-linecap="round" stroke-linejoin="round" d="M2.25 12.76c0 1.6 1.123 2.994 2.707 3.227 1.087.16 2.185.283 3.293.369V21l4.076-4.076a1.526 1.526 0 011.037-.443 48.282 48.282 0 005.68-.494c1.584-.233 2.707-1.626 2.707-3.228V6.741c0-1.602-1.123-2.995-2.707-3.228A48.394 48.394 0 0012 3c-2.392 0-4.744.175-7.043.513C3.373 3.746 2.25 5.14 2.25 6.741v6.018z" />
</symbol>

<symbol id="chat-round-empty" viewBox="0 0 24 24" fill="none" stroke="currentColor">
  <path stroke-linecap="round" stroke-linejoin="round" d="M12 20.25c4.97 0 9-3.694 9-8.25s-4.03-8.25-9-8.25S3 7.444 3 12c0 2.104.859 4.023 2.273 5.48.432.447.74 1.04.586 1.641a4.483 4.483 0 01-.923 1.785A5.969 5.969 0 006 21c1.282 0 2.47-.402 3.445-1.087.81.22 1.668.337 2.555.337z" />
</symbol>

<symbol id="chat-round-dotted" viewBox="0 0 24 24" fill="none" stroke="currentColor">
  <path stroke-linecap="round" stroke-linejoin="round" d="M8.625 12a.375.375 0 11-.75 0 .375.375 0 01.75 0zm0 0H8.25m4.125 0a.375.375 0 11-.75 0 .375.375 0 01.75 0zm0 0H12m4.125 0a.375.375 0 11-.75 0 .375.375 0 01.75 0zm0 0h-.375M21 12c0 4.556-4.03 8.25-9 8.25a9.764 9.764 0 01-2.555-.337A5.972 5.972 0 015.41 20.97a5.969 5.969 0 01-.474-.065 4.48 4.48 0 00.978-2.025c.09-.457-.133-.901-.467-1.226C3.93 16.178 3 14.189 3 12c0-4.556 4.03-8.25 9-8.25s9 3.694 9 8.25z" />
</symbol>


<symbol id="twitter" viewBox="0 0 30 30" fill="currentColor">
<path d="M15,3C8.373,3,3,8.373,3,15c0,6.627,5.373,12,12,12s12-5.373,12-12C27,8.373,21.627,3,15,3z M21.464,12.535 c0.006,0.133,0.009,0.265,0.009,0.397c0,4.068-3.095,8.756-8.756,8.756c-1.739,0-3.356-0.509-4.717-1.383 c0.241,0.029,0.486,0.042,0.735,0.042c1.443,0,2.769-0.491,3.821-1.318c-1.347-0.025-2.484-0.915-2.875-2.137 c0.188,0.036,0.381,0.055,0.579,0.055c0.281,0,0.554-0.038,0.811-0.108c-1.408-0.282-2.469-1.526-2.469-3.017 c0-0.013,0-0.026,0-0.039c0.415,0.231,0.889,0.369,1.394,0.385c-0.825-0.551-1.369-1.494-1.369-2.561 c0-0.565,0.151-1.094,0.416-1.547c1.518,1.862,3.786,3.088,6.343,3.216c-0.052-0.225-0.079-0.46-0.079-0.701 c0-1.699,1.378-3.078,3.077-3.078c0.885,0,1.685,0.374,2.246,0.972c0.701-0.139,1.36-0.394,1.955-0.747 c-0.23,0.719-0.718,1.321-1.354,1.703c0.622-0.074,1.215-0.239,1.768-0.484C22.588,11.559,22.067,12.1,21.464,12.535z"/>
</symbol>

<symbol id="github" viewBox="0 0 30 30" fill="currentColor">
<path d="M15,3C8.373,3,3,8.373,3,15c0,5.623,3.872,10.328,9.092,11.63C12.036,26.468,12,26.28,12,26.047v-2.051 c-0.487,0-1.303,0-1.508,0c-0.821,0-1.551-0.353-1.905-1.009c-0.393-0.729-0.461-1.844-1.435-2.526 c-0.289-0.227-0.069-0.486,0.264-0.451c0.615,0.174,1.125,0.596,1.605,1.222c0.478,0.627,0.703,0.769,1.596,0.769 c0.433,0,1.081-0.025,1.691-0.121c0.328-0.833,0.895-1.6,1.588-1.962c-3.996-0.411-5.903-2.399-5.903-5.098 c0-1.162,0.495-2.286,1.336-3.233C9.053,10.647,8.706,8.73,9.435,8c1.798,0,2.885,1.166,3.146,1.481C13.477,9.174,14.461,9,15.495,9 c1.036,0,2.024,0.174,2.922,0.483C18.675,9.17,19.763,8,21.565,8c0.732,0.731,0.381,2.656,0.102,3.594 c0.836,0.945,1.328,2.066,1.328,3.226c0,2.697-1.904,4.684-5.894,5.097C18.199,20.49,19,22.1,19,23.313v2.734 c0,0.104-0.023,0.179-0.035,0.268C23.641,24.676,27,20.236,27,15C27,8.373,21.627,3,15,3z"/>
</symbol>

</defs>
</svg>
